<svg xmlns="http://www.w3.org/2000/svg" xmlns:xlink="http://www.w3.org/1999/xlink" width="28" height="38" viewBox="0 0 28 38">
    <defs>
        <path id="a" d="M0 .558h27.896v36.798H0z"/>
    </defs>
    <g fill="none" fill-rule="evenodd" transform="translate(-244 -442)">
        <path fill="#FFF" d="M0 0h320v759H0z"/>
        <rect width="91" height="55" x="212.5" y="433.5" fill="#FEFEFE" stroke="#F2F2F2" rx="8"/>
        <g transform="translate(244 442.086)">
            <mask id="b" fill="#fff">
                <use xlink:href="#a"/>
            </mask>
            <path fill="#212121" d="M11.316 9.04a.297.297 0 0 0-.163.048l-5.514 3.561a.697.697 0 0 0-.317.587v5.555c0 4.493 3.785 8.228 8.44 8.326a8.726 8.726 0 0 0 6.334-2.48c1.599-1.57 2.479-3.645 2.479-5.846v-3.484a.183.183 0 0 0-.14-.178c-4.075-1.072-8.148-3.313-10.895-5.996a.319.319 0 0 0-.224-.093m2.711 18.726c-.095 0-.188-.002-.283-.005-4.993-.106-9.058-4.13-9.058-8.97v-5.555c0-.46.228-.882.61-1.13l5.515-3.562a.94.94 0 0 1 1.17.125c2.633 2.57 6.7 4.807 10.614 5.836a.83.83 0 0 1 .616.802v3.484c0 2.376-.95 4.616-2.673 6.308a9.343 9.343 0 0 1-6.51 2.667m-4.424 1.306a.323.323 0 0 1 .318.322v.463c0 .29.069.582.198.84.254.504 1.434 1.956 2.787 2.934a1.79 1.79 0 0 0 2.111-.021c.953-.695 1.88-1.64 2.608-2.662.345-.485.361-.928.349-1.548a.324.324 0 0 1 .117-.256.317.317 0 0 1 .273-.065c1.87.44 3.724 1.05 5.304 1.733 1.994-4.73 3.815-11.371 3.482-15.846l-.155-.977a17.554 17.554 0 0 0-5.315-10.052c-.372-.296-.783-.589-1.204-.854-.222-.139-.432-.262-.646-.38a16.14 16.14 0 0 0-2.425-1.005 12.224 12.224 0 0 0-1.485-.34c-3.43-.555-6.972.39-9.723 2.595a15.94 15.94 0 0 0-5.184 9.384 19.849 19.849 0 0 0-.158 5.386c.49 4.429 2.022 9.227 3.243 12.145 2.208-.972 4.45-1.556 5.433-1.788a.302.302 0 0 1 .072-.008m17.974 8.284a.32.32 0 0 1-.307-.236l-.854-3.133a3.014 3.014 0 0 0-1.476-1.852c-.354-.19-.735-.377-1.136-.56a.314.314 0 0 1-.198-.088c-1.476-.655-3.218-1.244-4.995-1.686-.014.53-.104 1.01-.47 1.523a12.625 12.625 0 0 1-2.752 2.81 2.424 2.424 0 0 1-2.853.021c-1.355-.979-2.651-2.505-2.984-3.167a2.532 2.532 0 0 1-.267-1.131v-.055c-1.128.282-3.157.854-5.121 1.74a.318.318 0 0 1-.201.092c-.34.157-.678.325-1.008.501a3.016 3.016 0 0 0-1.477 1.852L.625 37.12a.32.32 0 0 1-.391.224.323.323 0 0 1-.223-.396l.855-3.132c.262-.96.916-1.78 1.792-2.249.282-.152.57-.297.86-.435C2.28 28.174.723 23.3.225 18.795c-.2-1.813-.145-3.685.162-5.564.62-3.788 2.54-7.26 5.406-9.774 2.9-2.327 6.623-3.32 10.23-2.734.526.086 1.04.203 1.57.359.874.281 1.7.624 2.533 1.05.232.128.453.258.687.403.442.28.874.586 1.282.913a18.213 18.213 0 0 1 5.531 10.439l.158 1.005c.345 4.61-1.506 11.376-3.532 16.182.347.16.677.326.988.493a3.654 3.654 0 0 1 1.791 2.25l.855 3.131a.323.323 0 0 1-.307.408" mask="url(#b)"/>
        </g>
        <path fill="#212121" d="M262.293 471.801a.32.32 0 0 1-.319-.322v-2.827a.32.32 0 0 1 .319-.322.32.32 0 0 1 .318.322v2.827a.32.32 0 0 1-.318.322M253.604 471.802a.32.32 0 0 1-.318-.322v-2.91a.32.32 0 0 1 .318-.322.32.32 0 0 1 .318.322v2.91a.32.32 0 0 1-.318.322M257.948 465.292a5.84 5.84 0 0 1-3.324-1.044.324.324 0 0 1-.084-.447.315.315 0 0 1 .442-.085 5.187 5.187 0 0 0 5.933 0 .315.315 0 0 1 .441.085c.1.146.062.347-.083.447a5.848 5.848 0 0 1-3.325 1.044M254.218 460.57a3.5 3.5 0 0 1-1.96-.6l-.197-.133a.324.324 0 0 1-.088-.446.316.316 0 0 1 .441-.09l.197.133a2.86 2.86 0 0 0 2.93.166l.438-.213a.319.319 0 0 1 .424.151.324.324 0 0 1-.15.43l-.429.209a3.466 3.466 0 0 1-1.606.393M261.76 460.57a3.5 3.5 0 0 1-1.96-.6l-.197-.133a.324.324 0 0 1-.087-.446.316.316 0 0 1 .44-.09l.197.133c.875.59 1.997.654 2.93.166l.439-.213a.319.319 0 0 1 .424.151.324.324 0 0 1-.15.43l-.43.209a3.466 3.466 0 0 1-1.606.393"/>
        <path fill="#E0B3A9" d="M264.799 460.081c-.41 0-.41.644 0 .644s.41-.644 0-.644M264.258 461.397c-.41 0-.41.644 0 .644.409 0 .41-.644 0-.644M265.34 461.287c-.41 0-.41.644 0 .644s.41-.644 0-.644M265.557 460.52c-.41 0-.41.644 0 .644s.41-.644 0-.644M264.907 462.383c-.41 0-.41.645 0 .645s.41-.645 0-.645M251.283 460.081c.41 0 .41.644 0 .644s-.41-.644 0-.644M251.825 461.397c.41 0 .41.644 0 .644s-.41-.644 0-.644M250.742 461.287c.41 0 .41.644 0 .644s-.41-.644 0-.644M250.525 460.52c.41 0 .41.644 0 .644s-.41-.644 0-.644M251.175 462.383c.41 0 .41.645 0 .645s-.41-.645 0-.645M250.343 462.136c-.41 0-.41.644 0 .644s.41-.644 0-.644"/>
    </g>
</svg>
