<svg xmlns="http://www.w3.org/2000/svg" xmlns:xlink="http://www.w3.org/1999/xlink" width="28" height="38" viewBox="0 0 28 38">
    <defs>
        <path id="a" d="M0 .559h27.896v36.797H0z"/>
    </defs>
    <g fill="none" fill-rule="evenodd">
        <path fill="#FFF" d="M-146-336h320v759h-320z"/>
        <g transform="translate(0 .085)">
            <mask id="b" fill="#fff">
                <use xlink:href="#a"/>
            </mask>
            <path fill="#212121" d="M11.315 9.04a.291.291 0 0 0-.162.048L5.64 12.65a.695.695 0 0 0-.318.586v5.556c0 4.492 3.785 8.227 8.438 8.325a8.735 8.735 0 0 0 6.335-2.481c1.599-1.57 2.48-3.644 2.48-5.844l-.001-3.485a.185.185 0 0 0-.139-.177c-4.076-1.074-8.15-3.315-10.896-5.996v-.001a.32.32 0 0 0-.224-.093m2.711 18.726c-.094 0-.188-.002-.282-.005-4.994-.106-9.058-4.13-9.058-8.969v-5.556c0-.46.228-.881.61-1.13l5.515-3.562a.939.939 0 0 1 1.17.126c2.631 2.569 6.698 4.806 10.614 5.836a.828.828 0 0 1 .615.801l.001 3.485c0 2.375-.95 4.615-2.672 6.306a9.344 9.344 0 0 1-6.513 2.668m-4.422 1.306c.07 0 .14.024.198.07.075.06.12.153.12.252v.463c0 .29.068.582.198.84.253.503 1.434 1.956 2.786 2.934a1.792 1.792 0 0 0 2.112-.02c.954-.696 1.88-1.641 2.608-2.663.345-.485.361-.927.348-1.548a.323.323 0 0 1 .117-.256.317.317 0 0 1 .273-.064c1.871.44 3.726 1.049 5.305 1.733 1.994-4.73 3.815-11.37 3.482-15.847l-.155-.977a17.55 17.55 0 0 0-5.315-10.051 12.971 12.971 0 0 0-1.851-1.235 16.107 16.107 0 0 0-2.423-1.005 12.139 12.139 0 0 0-1.487-.34c-3.428-.555-6.972.39-9.722 2.595a15.949 15.949 0 0 0-5.185 9.384 19.872 19.872 0 0 0-.157 5.385c.49 4.432 2.022 9.23 3.242 12.146 2.207-.97 4.449-1.556 5.434-1.788a.3.3 0 0 1 .072-.008m17.974 8.284a.32.32 0 0 1-.307-.236l-.855-3.132a3.016 3.016 0 0 0-1.475-1.853c-.355-.19-.735-.377-1.137-.56a.325.325 0 0 1-.198-.088c-1.475-.654-3.217-1.243-4.995-1.685-.014.53-.104 1.008-.47 1.522a12.573 12.573 0 0 1-2.752 2.81 2.425 2.425 0 0 1-2.852.022c-1.355-.98-2.652-2.506-2.985-3.168a2.542 2.542 0 0 1-.267-1.13v-.056c-1.128.282-3.158.855-5.121 1.74a.317.317 0 0 1-.2.091c-.34.158-.679.326-1.008.502a3.017 3.017 0 0 0-1.477 1.853L.625 37.12a.32.32 0 0 1-.392.224.322.322 0 0 1-.221-.396l.854-3.131c.262-.96.915-1.78 1.791-2.25.283-.152.57-.296.862-.434C2.279 28.176.722 23.301.224 18.795c-.2-1.814-.146-3.686.162-5.564A16.599 16.599 0 0 1 5.79 3.457C8.692 1.13 12.42.139 16.021.723c.528.086 1.041.203 1.57.36.873.28 1.7.623 2.534 1.05a13.798 13.798 0 0 1 1.969 1.316 18.208 18.208 0 0 1 5.53 10.438l.158 1.004c.345 4.613-1.506 11.38-3.532 16.183.347.16.678.326.988.493.877.47 1.53 1.29 1.792 2.25l.854 3.131a.322.322 0 0 1-.306.408" mask="url(#b)"/>
        </g>
        <path fill="#212121" d="M18.292 29.801a.32.32 0 0 1-.318-.322v-2.828a.32.32 0 0 1 .318-.322.32.32 0 0 1 .318.322v2.828a.32.32 0 0 1-.318.322M9.604 29.801a.32.32 0 0 1-.318-.322v-2.91a.32.32 0 0 1 .318-.322.32.32 0 0 1 .318.322v2.91a.32.32 0 0 1-.318.322M13.948 23.292a5.843 5.843 0 0 1-3.324-1.044.323.323 0 0 1-.084-.447.313.313 0 0 1 .441-.085 5.193 5.193 0 0 0 5.934 0 .314.314 0 0 1 .441.085c.1.146.062.347-.084.447a5.843 5.843 0 0 1-3.324 1.044M10.218 18.57a3.5 3.5 0 0 1-1.96-.6l-.198-.133a.325.325 0 0 1-.087-.447.316.316 0 0 1 .441-.09l.197.133c.873.59 1.997.654 2.93.167l.438-.213a.316.316 0 0 1 .424.151c.076.16.01.353-.149.43l-.43.209a3.474 3.474 0 0 1-1.606.393M17.76 18.57a3.5 3.5 0 0 1-1.96-.6l-.197-.133a.325.325 0 0 1-.088-.447.316.316 0 0 1 .442-.09l.196.133c.873.59 1.997.654 2.93.167l.438-.213a.316.316 0 0 1 .424.151c.077.16.01.353-.148.43l-.43.209a3.474 3.474 0 0 1-1.607.393"/>
        <path fill="#E0B3A9" fill-opacity=".3" d="M20.89 20.286c-.113-.17-.366-.141-.495.01a2.127 2.127 0 0 0-1.169.614.33.33 0 0 0 0 .455c.636.625 1.56.225 1.707-.53.175-.135.163-.452-.043-.549M7.359 21.042c-.148-.03-.312.028-.36.219-.16.63.274 1.2.894 1.27.138.016.27-.11.307-.236A1.239 1.239 0 0 0 7.829 21c-.162-.139-.36-.08-.47.043z"/>
        <path fill="#E0B3A9" fill-opacity=".6" d="M20.55 20.534c-.065-.1-.212-.083-.288.005a1.24 1.24 0 0 0-.682.359.193.193 0 0 0 0 .266c.371.365.91.131.996-.31.103-.079.096-.263-.025-.32M7.505 21.373c-.118-.024-.249.022-.288.175-.128.502.22.959.716 1.015.11.013.215-.089.245-.19a.99.99 0 0 0-.297-1.035c-.13-.111-.288-.065-.376.035z"/>
    </g>
</svg>
