<svg xmlns="http://www.w3.org/2000/svg" xmlns:xlink="http://www.w3.org/1999/xlink" width="28" height="38" viewBox="0 0 28 38">
    <defs>
        <path id="a" d="M0 .558h27.896v36.798H0z"/>
    </defs>
    <g fill="none" fill-rule="evenodd">
        <path fill="none" d="M-48-230h320v759H-48z"/>
        <g transform="translate(0 .086)">
            <mask id="b" fill="#fff">
                <use xlink:href="#a"/>
            </mask>
            <path fill="#212121" d="M11.315 9.04a.296.296 0 0 0-.162.047L5.64 12.65a.695.695 0 0 0-.318.587v5.555c0 4.493 3.785 8.228 8.438 8.326a8.674 8.674 0 0 0 6.335-2.482c1.599-1.568 2.48-3.643 2.48-5.844l-.001-3.484a.185.185 0 0 0-.14-.178c-4.075-1.072-8.148-3.314-10.895-5.996a.32.32 0 0 0-.224-.093m2.711 18.725c-.094 0-.188-.001-.282-.004-4.994-.106-9.058-4.13-9.058-8.97v-5.555c0-.46.228-.882.61-1.13l5.515-3.562a.939.939 0 0 1 1.17.125c2.632 2.57 6.699 4.806 10.614 5.837a.828.828 0 0 1 .615.801v3.484c0 2.376-.949 4.616-2.671 6.307a9.345 9.345 0 0 1-6.513 2.667m-4.422 1.306a.318.318 0 0 1 .318.322v.464c0 .287.07.585.198.84.253.504 1.434 1.956 2.786 2.934a1.793 1.793 0 0 0 2.112-.02c.954-.696 1.88-1.641 2.608-2.664.344-.484.361-.927.348-1.546a.323.323 0 0 1 .117-.257.317.317 0 0 1 .273-.064c1.87.44 3.724 1.048 5.304 1.732 1.995-4.73 3.816-11.37 3.483-15.846l-.155-.977A17.55 17.55 0 0 0 21.68 3.937a13.319 13.319 0 0 0-1.85-1.234 16.182 16.182 0 0 0-2.424-1.005 12.15 12.15 0 0 0-1.486-.339c-3.425-.558-6.971.388-9.722 2.594a15.943 15.943 0 0 0-5.185 9.383 19.877 19.877 0 0 0-.157 5.387c.49 4.43 2.022 9.228 3.242 12.145 2.207-.972 4.45-1.556 5.434-1.788a.3.3 0 0 1 .072-.009m17.974 8.285a.318.318 0 0 1-.307-.236l-.855-3.132a3.012 3.012 0 0 0-1.475-1.853c-.355-.19-.735-.377-1.137-.56a.32.32 0 0 1-.197-.088c-1.477-.655-3.219-1.245-4.996-1.685-.014.53-.104 1.008-.47 1.522-.766 1.077-1.744 2.075-2.752 2.81a2.422 2.422 0 0 1-2.852.021c-1.355-.98-2.652-2.505-2.985-3.167a2.54 2.54 0 0 1-.267-1.13v-.056c-1.129.282-3.158.854-5.121 1.74a.318.318 0 0 1-.2.091c-.341.158-.679.326-1.009.503a3.012 3.012 0 0 0-1.476 1.852L.625 37.12a.319.319 0 1 1-.613-.172l.854-3.132a3.656 3.656 0 0 1 1.791-2.25c.283-.15.57-.296.862-.434C2.279 28.175.722 23.3.224 18.794c-.2-1.813-.146-3.685.162-5.563.62-3.788 2.54-7.26 5.405-9.774C8.693 1.13 12.42.137 16.021.723c.527.086 1.04.203 1.57.36.875.28 1.702.623 2.534 1.05a13.452 13.452 0 0 1 1.97 1.315 18.212 18.212 0 0 1 5.53 10.439l.157 1.004c.345 4.613-1.506 11.379-3.532 16.182.347.162.677.326.988.494a3.66 3.66 0 0 1 1.792 2.249l.854 3.132a.322.322 0 0 1-.306.408" mask="url(#b)"/>
        </g>
        <path fill="#212121" d="M18.292 29.801a.32.32 0 0 1-.318-.322v-2.828a.32.32 0 0 1 .318-.322.32.32 0 0 1 .318.322v2.828a.32.32 0 0 1-.318.322M9.604 29.801a.32.32 0 0 1-.319-.322v-2.91a.32.32 0 0 1 .319-.321.32.32 0 0 1 .318.322v2.91a.32.32 0 0 1-.318.321M13.948 23.292a5.847 5.847 0 0 1-3.325-1.044.324.324 0 0 1-.084-.448.316.316 0 0 1 .443-.084 5.189 5.189 0 0 0 5.932 0 .316.316 0 0 1 .442.084c.1.147.062.348-.083.448a5.847 5.847 0 0 1-3.325 1.044M10.218 18.57c-.686 0-1.37-.202-1.961-.6l-.196-.133a.324.324 0 0 1-.089-.446.315.315 0 0 1 .442-.09l.196.133c.874.59 1.997.653 2.931.166l.437-.213a.316.316 0 0 1 .425.151c.076.16.01.353-.15.43l-.429.208a3.474 3.474 0 0 1-1.606.394M17.76 18.57c-.685 0-1.37-.202-1.96-.6l-.197-.133a.324.324 0 0 1-.088-.446.316.316 0 0 1 .442-.09l.196.133c.874.59 1.997.653 2.93.166l.438-.213a.316.316 0 0 1 .424.151c.077.16.01.353-.149.43l-.43.208a3.474 3.474 0 0 1-1.606.394"/>
        <path fill="#E0B3A9" d="M18.133 18.927l1.55-.15a.448.448 0 0 0 .187-.063l.959-.576a.334.334 0 0 1 .23-.042c.158.03.273.17.273.332v.736c0 .265-.068.526-.199.756a1.492 1.492 0 0 1-1.452.75l-.317-.033a1.487 1.487 0 0 1-.792-.334l-.682-.565a.464.464 0 0 1-.167-.342.457.457 0 0 1 .41-.47M9.868 18.927l-1.55-.15a.45.45 0 0 1-.187-.063l-.959-.576a.334.334 0 0 0-.23-.042.337.337 0 0 0-.273.332v.736c0 .265.068.526.199.756.295.519.864.812 1.452.75l.317-.033c.29-.031.566-.147.793-.334l.681-.565a.462.462 0 0 0-.243-.811"/>
    </g>
</svg>
