<svg xmlns="http://www.w3.org/2000/svg" xmlns:xlink="http://www.w3.org/1999/xlink" width="28" height="38" viewBox="0 0 28 38">
    <defs>
        <path id="a" d="M0 .56h27.896v36.796H0z"/>
    </defs>
    <g fill="none" fill-rule="evenodd">
        <path fill="#FFF" d="M-146-442h320v759h-320z"/>
        <g transform="translate(0 .085)">
            <mask id="b" fill="#fff">
                <use xlink:href="#a"/>
            </mask>
            <path fill="#212121" d="M11.316 9.04a.291.291 0 0 0-.163.047L5.64 12.65a.695.695 0 0 0-.318.587v5.555c0 4.492 3.786 8.227 8.439 8.326a8.689 8.689 0 0 0 6.335-2.482c1.598-1.569 2.479-3.644 2.479-5.844v-3.484a.184.184 0 0 0-.14-.178c-4.075-1.072-8.148-3.314-10.896-5.996a.32.32 0 0 0-.223-.093m2.71 18.725c-.094 0-.188-.002-.282-.004-4.993-.107-9.058-4.13-9.058-8.97v-5.555c0-.46.229-.883.612-1.13l5.513-3.562a.938.938 0 0 1 1.17.125c2.632 2.57 6.7 4.807 10.614 5.836a.83.83 0 0 1 .616.802v3.484c0 2.376-.95 4.616-2.672 6.307a9.344 9.344 0 0 1-6.512 2.667m-4.423 1.306a.317.317 0 0 1 .318.322v.464c0 .287.07.584.197.839.254.504 1.435 1.957 2.788 2.935a1.794 1.794 0 0 0 2.111-.02c.954-.696 1.88-1.641 2.608-2.664.345-.485.361-.908.348-1.547a.325.325 0 0 1 .118-.257.315.315 0 0 1 .273-.064c1.87.44 3.724 1.05 5.304 1.733 1.994-4.73 3.815-11.37 3.482-15.846l-.155-.978a17.551 17.551 0 0 0-5.315-10.05 13.343 13.343 0 0 0-1.85-1.235 16.222 16.222 0 0 0-2.425-1.005 12.273 12.273 0 0 0-1.486-.34c-3.428-.555-6.972.39-9.722 2.595a15.945 15.945 0 0 0-5.184 9.384 19.867 19.867 0 0 0-.158 5.385c.49 4.43 2.022 9.228 3.243 12.146 2.205-.97 4.448-1.556 5.432-1.789a.305.305 0 0 1 .073-.008m17.973 8.285a.319.319 0 0 1-.306-.236l-.854-3.133a3.017 3.017 0 0 0-1.476-1.852 19.48 19.48 0 0 0-1.137-.56.3.3 0 0 1-.104-.026.29.29 0 0 1-.093-.062c-1.476-.655-3.219-1.244-4.996-1.686-.014.53-.104 1.01-.469 1.522a12.59 12.59 0 0 1-2.752 2.81 2.424 2.424 0 0 1-2.853.022c-1.356-.98-2.652-2.505-2.985-3.167a2.535 2.535 0 0 1-.266-1.131v-.055c-1.13.283-3.16.855-5.122 1.74a.318.318 0 0 1-.2.092c-.34.157-.679.325-1.008.501a3.015 3.015 0 0 0-1.477 1.852L.625 37.12a.319.319 0 0 1-.392.224.323.323 0 0 1-.222-.396l.856-3.132c.261-.96.914-1.78 1.79-2.249.283-.152.571-.296.862-.435C2.279 28.174.722 23.298.224 18.794c-.2-1.814-.146-3.685.162-5.563.62-3.788 2.54-7.26 5.405-9.774C8.693 1.13 12.42.14 16.021.723c.528.086 1.04.203 1.57.359.874.281 1.7.624 2.535 1.05a13.673 13.673 0 0 1 1.968 1.316 18.212 18.212 0 0 1 5.53 10.438l.158 1.005c.345 4.613-1.505 11.379-3.532 16.182.347.161.678.326.989.494.877.47 1.53 1.29 1.791 2.25l.855 3.131a.323.323 0 0 1-.308.408" mask="url(#b)"/>
        </g>
        <path fill="#212121" d="M18.292 29.8a.32.32 0 0 1-.318-.322V26.65a.32.32 0 0 1 .318-.322.32.32 0 0 1 .319.322v2.828a.32.32 0 0 1-.319.322M9.604 29.8a.32.32 0 0 1-.318-.322v-2.91a.32.32 0 0 1 .318-.321.32.32 0 0 1 .318.322v2.91a.32.32 0 0 1-.318.321M13.948 23.29a5.843 5.843 0 0 1-3.324-1.043.323.323 0 0 1-.084-.447.314.314 0 0 1 .442-.085 5.193 5.193 0 0 0 5.933 0 .314.314 0 0 1 .442.085c.099.146.061.347-.084.447a5.843 5.843 0 0 1-3.325 1.044M10.218 18.57c-.686 0-1.37-.202-1.96-.602l-.196-.131a.324.324 0 0 1-.09-.446.316.316 0 0 1 .442-.091l.196.132a2.862 2.862 0 0 0 2.931.167l.438-.213a.316.316 0 0 1 .424.151c.076.16.01.353-.149.43l-.43.209a3.474 3.474 0 0 1-1.606.393M17.76 18.57c-.685 0-1.37-.202-1.96-.602l-.196-.131a.324.324 0 0 1-.089-.446.316.316 0 0 1 .441-.091l.197.132a2.862 2.862 0 0 0 2.93.167l.438-.213a.316.316 0 0 1 .424.151c.077.16.01.353-.148.43l-.43.209a3.474 3.474 0 0 1-1.607.393"/>
        <path fill="#E0B3A9" d="M12.996 19.459a.294.294 0 0 1-.292.295.294.294 0 0 1-.292-.295c0-.163.131-.295.292-.295.16 0 .292.132.292.295M14.507 19.727a.294.294 0 0 1-.291.295.294.294 0 0 1-.292-.295c0-.163.13-.295.292-.295.16 0 .291.132.291.295M16.363 19.969c-.41 0-.41.644 0 .644s.41-.644 0-.644M10.318 19.486c-.41 0-.41.644 0 .644s.41-.644 0-.644M14.733 17.795c-.41 0-.41.644 0 .644s.41-.644 0-.644M12.744 20.814c-.41 0-.41.644 0 .644s.41-.644 0-.644M20.58 19.244c-.41 0-.411.644 0 .644.409 0 .41-.644 0-.644M18.948 20.21c-.41 0-.41.644 0 .644s.41-.644 0-.644M7.772 19.526c-.41 0-.41.644 0 .644s.41-.644 0-.644M9.244 21.176c-.41 0-.41.644 0 .644s.41-.644 0-.644M18.233 19.003c-.41 0-.41.644 0 .644s.41-.644 0-.644M14.693 20.854c-.41 0-.41.644 0 .644s.41-.644 0-.644M8.965 19.204c-.41 0-.41.644 0 .644s.41-.644 0-.644M15.886 18.801c-.41 0-.41.644 0 .644s.41-.644 0-.644"/>
    </g>
</svg>
