<svg xmlns="http://www.w3.org/2000/svg" xmlns:xlink="http://www.w3.org/1999/xlink" width="28" height="38" viewBox="0 0 28 38">
    <defs>
        <path id="a" d="M0 .558h27.896v36.798H0z"/>
    </defs>
    <g fill="none" fill-rule="evenodd">
        <path fill="#FFF" d="M-244-336H76v759h-320z"/>
        <g transform="translate(0 .086)">
            <mask id="b" fill="#fff">
                <use xlink:href="#a"/>
            </mask>
            <path fill="#212121" d="M11.315 9.04a.296.296 0 0 0-.162.047L5.64 12.65a.695.695 0 0 0-.318.587v5.555c0 4.493 3.785 8.228 8.438 8.326a8.68 8.68 0 0 0 6.335-2.482c1.599-1.568 2.48-3.644 2.48-5.844l-.001-3.484a.183.183 0 0 0-.14-.178c-4.075-1.072-8.148-3.314-10.895-5.997a.322.322 0 0 0-.224-.093m2.711 18.726c-.094 0-.188-.001-.282-.004-4.994-.106-9.058-4.13-9.058-8.97v-5.555c0-.46.228-.882.61-1.13l5.515-3.562a.938.938 0 0 1 1.17.125c2.632 2.57 6.7 4.806 10.614 5.837a.828.828 0 0 1 .615.8l.001 3.485c0 2.376-.95 4.616-2.672 6.307a9.345 9.345 0 0 1-6.513 2.667m-4.422 1.306a.318.318 0 0 1 .318.322v.464c0 .287.07.585.198.84.253.504 1.434 1.956 2.786 2.934a1.795 1.795 0 0 0 2.112-.021c.953-.694 1.879-1.64 2.608-2.663.345-.485.362-.908.348-1.547a.325.325 0 0 1 .117-.257.314.314 0 0 1 .273-.063c1.87.44 3.725 1.048 5.305 1.732 1.994-4.73 3.815-11.37 3.482-15.846l-.155-.977a17.553 17.553 0 0 0-5.315-10.052 13.144 13.144 0 0 0-1.851-1.234 16.11 16.11 0 0 0-2.423-1.005 12.219 12.219 0 0 0-1.486-.339c-3.428-.558-6.973.387-9.723 2.594a15.945 15.945 0 0 0-5.185 9.383 19.877 19.877 0 0 0-.157 5.386c.49 4.429 2.022 9.227 3.242 12.146 2.208-.972 4.45-1.556 5.434-1.788a.3.3 0 0 1 .072-.009m17.974 8.285a.318.318 0 0 1-.307-.236l-.855-3.133a3.012 3.012 0 0 0-1.475-1.852c-.355-.19-.735-.377-1.137-.56a.315.315 0 0 1-.198-.089c-1.476-.654-3.217-1.244-4.995-1.685-.014.53-.104 1.009-.47 1.523-.767 1.077-1.744 2.075-2.752 2.808a2.422 2.422 0 0 1-2.852.023c-1.355-.98-2.652-2.505-2.985-3.167a2.54 2.54 0 0 1-.267-1.13v-.056c-1.128.282-3.157.854-5.12 1.74a.318.318 0 0 1-.202.092c-.34.157-.678.324-1.007.501a3.015 3.015 0 0 0-1.477 1.852L.625 37.12a.318.318 0 1 1-.613-.172l.854-3.132a3.658 3.658 0 0 1 1.791-2.25c.283-.152.57-.296.862-.434C2.279 28.173.722 23.297.224 18.794c-.2-1.813-.146-3.685.162-5.563A16.599 16.599 0 0 1 5.79 3.457C8.692 1.13 12.418.136 16.021.723c.525.085 1.039.203 1.57.359.873.28 1.7.623 2.534 1.05a13.452 13.452 0 0 1 1.97 1.316 18.212 18.212 0 0 1 5.53 10.439l.157 1.004c.345 4.613-1.506 11.379-3.532 16.182.347.161.678.326.988.493.877.471 1.53 1.291 1.792 2.25l.854 3.132a.322.322 0 0 1-.306.408" mask="url(#b)"/>
        </g>
        <path fill="#212121" d="M18.292 29.801a.32.32 0 0 1-.318-.322v-2.827a.32.32 0 0 1 .318-.322.32.32 0 0 1 .318.322v2.827a.32.32 0 0 1-.318.322M9.604 29.802a.32.32 0 0 1-.318-.323V26.57a.32.32 0 0 1 .318-.322.32.32 0 0 1 .318.322v2.91a.32.32 0 0 1-.318.322M13.948 23.292a5.85 5.85 0 0 1-3.325-1.044.324.324 0 0 1-.083-.447.316.316 0 0 1 .442-.085 5.187 5.187 0 0 0 5.932 0 .316.316 0 0 1 .442.085c.1.147.062.347-.083.447a5.847 5.847 0 0 1-3.325 1.044M10.218 18.57c-.686 0-1.37-.201-1.96-.6l-.198-.133a.325.325 0 0 1-.087-.447.316.316 0 0 1 .441-.089l.197.133c.874.59 1.996.653 2.93.166l.438-.212a.315.315 0 0 1 .424.15c.076.16.01.353-.149.43l-.43.209a3.474 3.474 0 0 1-1.606.393M17.76 18.57c-.685 0-1.37-.201-1.96-.6l-.197-.133a.325.325 0 0 1-.088-.447.316.316 0 0 1 .442-.089l.196.133c.874.59 1.997.653 2.93.166l.438-.212a.316.316 0 0 1 .424.15c.077.16.01.353-.148.43l-.43.209a3.474 3.474 0 0 1-1.607.393"/>
        <path fill="#E0B3A9" d="M8.608 20.145a2.472 2.472 0 0 1-1.832-.82l-.1-.11a.487.487 0 0 1 .032-.683.473.473 0 0 1 .675.031l.098.11c.374.416.943.592 1.48.463l.304-.064a.478.478 0 0 1 .564.376.482.482 0 0 1-.371.57l-.291.06a2.391 2.391 0 0 1-.559.067M19.07 20.144a2.46 2.46 0 0 1-.57-.068l-.278-.058a.482.482 0 0 1-.371-.57.477.477 0 0 1 .564-.376l.29.061a1.522 1.522 0 0 0 1.493-.46l.1-.11a.474.474 0 0 1 .674-.03c.194.179.208.485.03.682l-.098.11a2.468 2.468 0 0 1-1.834.819M14.354 15.757l-1.058-.875c-.026-.022-.054-.031-.082-.044a.133.133 0 0 0-.027-.014c-.01-.004-.021-.006-.033-.009-.203-.06-.48.104-.424.385.13.662.736 1.134 1.398 1.107.251-.01.453-.362.226-.55M11.811 15.741c-.58 0-.58.912 0 .912s.581-.912 0-.912M18.06 24.096l.875-.353c.317-.128.54-.427.441-.786-.083-.305-.457-.575-.776-.446l-.876.353c-.317.128-.539.427-.44.786.082.305.457.575.775.446"/>
    </g>
</svg>
