<svg xmlns="http://www.w3.org/2000/svg" xmlns:xlink="http://www.w3.org/1999/xlink" width="28" height="38" viewBox="0 0 28 38">
    <defs>
        <path id="a" d="M0 .558h27.896v36.798H0z"/>
    </defs>
    <g fill="none" fill-rule="evenodd">
        <path fill="none" d="M-48-548h320v759H-48z"/>
        <g transform="translate(0 .086)">
            <mask id="b" fill="#fff">
                <use xlink:href="#a"/>
            </mask>
            <path fill="#212121" d="M11.316 9.04a.295.295 0 0 0-.163.048L5.639 12.65a.696.696 0 0 0-.317.586v5.556c0 4.492 3.785 8.227 8.44 8.325a8.72 8.72 0 0 0 6.334-2.481c1.599-1.57 2.479-3.644 2.479-5.844v-3.484a.184.184 0 0 0-.14-.178c-4.075-1.074-8.149-3.315-10.895-5.996l-.001-.001a.321.321 0 0 0-.223-.093m2.711 18.726c-.095 0-.188-.002-.283-.005-4.993-.106-9.059-4.13-9.059-8.969v-5.556c0-.46.229-.882.613-1.13l5.513-3.562a.939.939 0 0 1 1.17.126c2.632 2.57 6.7 4.806 10.614 5.836a.828.828 0 0 1 .616.802v3.484c0 2.375-.95 4.615-2.673 6.307a9.343 9.343 0 0 1-6.51 2.667m-4.424 1.306a.323.323 0 0 1 .318.322v.463c0 .29.068.581.198.84.253.504 1.434 1.956 2.787 2.934a1.792 1.792 0 0 0 2.111-.02 11.932 11.932 0 0 0 2.608-2.663c.345-.485.361-.909.349-1.547a.327.327 0 0 1 .117-.257.321.321 0 0 1 .273-.064c1.87.44 3.724 1.048 5.303 1.733 1.995-4.73 3.817-11.371 3.483-15.847l-.155-.977a17.555 17.555 0 0 0-5.315-10.051 12.887 12.887 0 0 0-1.85-1.235A16.087 16.087 0 0 0 17.405 1.7a12.226 12.226 0 0 0-1.486-.34c-3.429-.554-6.973.39-9.723 2.594a15.947 15.947 0 0 0-5.183 9.384 19.87 19.87 0 0 0-.158 5.386c.49 4.429 2.021 9.227 3.243 12.145 2.206-.97 4.447-1.555 5.432-1.788a.302.302 0 0 1 .073-.008m17.974 8.284a.32.32 0 0 1-.307-.236l-.855-3.132a3.014 3.014 0 0 0-1.475-1.853c-.355-.19-.735-.377-1.137-.56a.314.314 0 0 1-.198-.088c-1.476-.654-3.218-1.244-4.994-1.685-.015.53-.105 1.009-.47 1.522a12.587 12.587 0 0 1-2.752 2.81 2.424 2.424 0 0 1-2.853.022c-1.355-.98-2.651-2.506-2.985-3.168a2.535 2.535 0 0 1-.266-1.13v-.056c-1.13.283-3.159.855-5.12 1.74a.316.316 0 0 1-.204.092c-.34.158-.677.325-1.007.501a3.019 3.019 0 0 0-1.475 1.853L.625 37.12a.32.32 0 0 1-.391.224.323.323 0 0 1-.223-.396l.855-3.131a3.66 3.66 0 0 1 1.791-2.25c.283-.152.57-.296.861-.435C2.28 28.175.722 23.3.224 18.795c-.2-1.815-.146-3.686.161-5.564a16.609 16.609 0 0 1 5.406-9.774C8.69 1.13 12.418.137 16.022.723c.524.085 1.037.203 1.569.36.874.28 1.7.623 2.534 1.05a13.673 13.673 0 0 1 1.969 1.316 18.214 18.214 0 0 1 5.531 10.438l.158 1.005c.345 4.611-1.506 11.377-3.533 16.182.347.16.678.326.99.493a3.658 3.658 0 0 1 1.79 2.25l.855 3.131a.323.323 0 0 1-.307.408" mask="url(#b)"/>
        </g>
        <path fill="#212121" d="M18.293 29.802a.32.32 0 0 1-.319-.322v-2.828a.32.32 0 0 1 .319-.322.32.32 0 0 1 .318.322v2.828a.32.32 0 0 1-.318.322M9.604 29.802a.32.32 0 0 1-.319-.322v-2.91a.32.32 0 0 1 .319-.321.32.32 0 0 1 .318.322v2.909a.32.32 0 0 1-.318.322M13.948 23.293a5.844 5.844 0 0 1-3.324-1.044.324.324 0 0 1-.084-.447.315.315 0 0 1 .441-.085 5.193 5.193 0 0 0 5.934 0 .315.315 0 0 1 .441.085c.1.146.062.347-.083.447a5.847 5.847 0 0 1-3.325 1.044M10.218 18.57a3.5 3.5 0 0 1-1.96-.6l-.197-.133a.324.324 0 0 1-.088-.446.316.316 0 0 1 .441-.09l.197.133c.875.59 1.998.653 2.93.166l.438-.212a.319.319 0 0 1 .424.151.324.324 0 0 1-.15.43l-.429.208a3.474 3.474 0 0 1-1.606.394M17.76 18.57a3.5 3.5 0 0 1-1.96-.6l-.197-.133a.324.324 0 0 1-.087-.446.316.316 0 0 1 .44-.09l.197.133c.875.59 1.998.653 2.93.166l.439-.212a.319.319 0 0 1 .424.151.324.324 0 0 1-.15.43l-.43.208a3.474 3.474 0 0 1-1.606.394"/>
    </g>
</svg>
