<svg xmlns="http://www.w3.org/2000/svg" xmlns:xlink="http://www.w3.org/1999/xlink" width="28" height="38" viewBox="0 0 28 38">
    <defs>
        <path id="a" d="M0 .558h27.896v36.798H0z"/>
    </defs>
    <g fill="none" fill-rule="evenodd">
        <path fill="none" d="M-244-230H76v759h-320z"/>
        <g transform="translate(0 .086)">
            <mask id="b" fill="#fff">
                <use xlink:href="#a"/>
            </mask>
            <path fill="#212121" d="M11.315 9.04a.296.296 0 0 0-.162.047L5.64 12.65a.695.695 0 0 0-.318.587v5.555c0 4.493 3.785 8.228 8.438 8.326a8.7 8.7 0 0 0 6.336-2.482c1.599-1.568 2.479-3.643 2.479-5.844l-.001-3.484a.185.185 0 0 0-.14-.178c-4.075-1.072-8.148-3.314-10.895-5.996a.32.32 0 0 0-.224-.093m2.71 18.726a8.23 8.23 0 0 1-.281-.005c-4.994-.106-9.058-4.13-9.058-8.97v-5.555c0-.46.228-.882.61-1.13l5.515-3.562a.94.94 0 0 1 1.17.125c2.632 2.57 6.698 4.806 10.614 5.837a.828.828 0 0 1 .615.801l.001 3.484c0 2.376-.949 4.616-2.671 6.306a9.345 9.345 0 0 1-6.514 2.669m-4.422 1.306c.07 0 .14.024.198.07.075.06.12.153.12.252v.463c0 .287.07.585.198.84.253.503 1.434 1.956 2.786 2.934a1.795 1.795 0 0 0 2.112-.02c.954-.696 1.88-1.641 2.608-2.664.345-.484.361-.927.348-1.547a.323.323 0 0 1 .117-.257.317.317 0 0 1 .273-.063c1.871.44 3.725 1.049 5.305 1.732 1.994-4.73 3.816-11.369 3.482-15.846l-.155-.977a17.547 17.547 0 0 0-5.315-10.051 12.901 12.901 0 0 0-1.85-1.234 16.196 16.196 0 0 0-2.425-1.006 12.216 12.216 0 0 0-1.486-.339c-3.43-.56-6.972.388-9.722 2.594a15.948 15.948 0 0 0-5.185 9.384 19.843 19.843 0 0 0-.156 5.385c.489 4.43 2.02 9.228 3.242 12.146 2.208-.972 4.449-1.556 5.433-1.788a.3.3 0 0 1 .072-.008m17.974 8.284a.318.318 0 0 1-.307-.236l-.855-3.132a3.01 3.01 0 0 0-1.475-1.852c-.355-.19-.735-.378-1.137-.56a.332.332 0 0 1-.197-.089c-1.475-.655-3.218-1.244-4.996-1.685-.014.53-.104 1.008-.47 1.522-.766 1.077-1.744 2.075-2.752 2.81a2.423 2.423 0 0 1-2.852.021c-1.355-.98-2.652-2.505-2.985-3.167a2.54 2.54 0 0 1-.267-1.13v-.056c-1.128.282-3.156.854-5.12 1.74a.326.326 0 0 1-.201.091c-.34.158-.679.326-1.008.503a3.01 3.01 0 0 0-1.476 1.852L.625 37.12a.318.318 0 1 1-.613-.172l.854-3.132a3.656 3.656 0 0 1 1.791-2.25c.283-.15.57-.296.862-.434C2.279 28.174.722 23.3.224 18.795c-.2-1.815-.146-3.687.162-5.564A16.604 16.604 0 0 1 5.79 3.457C8.692 1.13 12.417.137 16.021.723c.528.086 1.041.203 1.57.36.874.28 1.7.623 2.534 1.05a13.526 13.526 0 0 1 1.969 1.316 18.204 18.204 0 0 1 5.53 10.438l.158 1.004c.345 4.614-1.506 11.38-3.532 16.182.347.162.678.327.988.493.877.47 1.53 1.29 1.792 2.25l.854 3.132a.322.322 0 0 1-.306.408" mask="url(#b)"/>
        </g>
        <path fill="#212121" d="M18.292 29.801a.32.32 0 0 1-.318-.322v-2.828a.32.32 0 0 1 .318-.322.32.32 0 0 1 .318.322v2.828a.32.32 0 0 1-.318.322M9.604 29.802a.32.32 0 0 1-.318-.322v-2.91a.32.32 0 0 1 .318-.322.32.32 0 0 1 .318.322v2.91a.32.32 0 0 1-.318.322M13.948 23.293a5.848 5.848 0 0 1-3.325-1.045l.359-.532a5.188 5.188 0 0 0 5.933 0 .314.314 0 0 1 .441.084c.1.148.062.348-.083.448a5.847 5.847 0 0 1-3.325 1.045M10.218 18.57a3.508 3.508 0 0 1-1.96-.6l-.198-.132a.325.325 0 0 1-.087-.447.316.316 0 0 1 .441-.09l.197.133c.874.59 1.997.653 2.93.166l.438-.212c.159-.08.348-.01.424.15.076.161.01.354-.149.43l-.43.208a3.466 3.466 0 0 1-1.606.394M17.76 18.57a3.508 3.508 0 0 1-1.96-.6l-.197-.132a.325.325 0 0 1-.088-.447.315.315 0 0 1 .442-.09l.196.133c.874.59 1.997.653 2.93.166l.438-.212c.16-.08.348-.01.424.15.077.161.01.354-.148.43l-.43.208a3.466 3.466 0 0 1-1.607.394"/>
        <path fill="#E0B3A9" d="M7.712 19.794c-.55 0-1.093-.232-1.478-.655l-.067-.073a.637.637 0 0 1 .939-.86l.067.074c.18.198.45.281.708.22l.216-.045a.637.637 0 0 1 .258 1.246l-.198.042a1.917 1.917 0 0 1-.445.051M20.15 19.792a1.96 1.96 0 0 1-.462-.054l-.18-.037a.637.637 0 0 1 .257-1.246l.199.041a.735.735 0 0 0 .725-.214l.068-.075a.637.637 0 0 1 .94.86l-.069.074c-.383.42-.923.651-1.479.651"/>
    </g>
</svg>
