<svg xmlns="http://www.w3.org/2000/svg" xmlns:xlink="http://www.w3.org/1999/xlink" width="28" height="38" viewBox="0 0 28 38">
    <defs>
        <path id="a" d="M0 .559h27.896v36.797H0z"/>
    </defs>
    <g fill="none" fill-rule="evenodd">
        <path fill"none" d="M-48-336h320v759H-48z"/>
        <g transform="translate(0 .086)">
            <mask id="b" fill="#fff">
                <use xlink:href="#a"/>
            </mask>
            <path fill="#212121" d="M11.315 9.04a.296.296 0 0 0-.162.048L5.64 12.65a.695.695 0 0 0-.318.586v5.556c0 4.492 3.785 8.227 8.438 8.325a8.734 8.734 0 0 0 6.336-2.481c1.599-1.57 2.479-3.644 2.479-5.844l-.001-3.485a.185.185 0 0 0-.139-.177c-4.076-1.074-8.15-3.315-10.896-5.997a.322.322 0 0 0-.224-.093m2.711 18.726c-.094 0-.188-.002-.282-.005-4.994-.106-9.058-4.13-9.058-8.969v-5.556c0-.46.228-.881.61-1.13l5.515-3.562a.94.94 0 0 1 1.17.126c2.631 2.568 6.698 4.805 10.614 5.836a.829.829 0 0 1 .615.801l.001 3.485c0 2.375-.949 4.615-2.672 6.306a9.343 9.343 0 0 1-6.513 2.668m-4.422 1.306c.07 0 .14.024.198.07.075.06.12.153.12.252v.463c0 .29.068.582.198.84.253.504 1.434 1.956 2.786 2.934a1.795 1.795 0 0 0 2.112-.02 11.932 11.932 0 0 0 2.608-2.663c.345-.485.361-.927.348-1.548a.323.323 0 0 1 .117-.256.315.315 0 0 1 .273-.064c1.872.44 3.726 1.049 5.305 1.732 1.994-4.73 3.815-11.37 3.482-15.846l-.155-.977a17.547 17.547 0 0 0-5.315-10.051 12.803 12.803 0 0 0-1.851-1.235 16.162 16.162 0 0 0-2.423-1.005 12.204 12.204 0 0 0-1.487-.34c-3.428-.555-6.972.39-9.722 2.595a15.952 15.952 0 0 0-5.185 9.384 19.843 19.843 0 0 0-.156 5.385c.489 4.43 2.02 9.229 3.242 12.146 2.209-.972 4.449-1.556 5.433-1.788a.3.3 0 0 1 .072-.008m17.974 8.284a.32.32 0 0 1-.307-.236l-.855-3.132a3.014 3.014 0 0 0-1.475-1.853c-.355-.19-.735-.377-1.137-.56a.325.325 0 0 1-.198-.088c-1.474-.654-3.217-1.243-4.995-1.685-.014.53-.104 1.008-.47 1.522a12.573 12.573 0 0 1-2.752 2.81 2.424 2.424 0 0 1-2.852.022c-1.355-.98-2.652-2.506-2.985-3.168a2.542 2.542 0 0 1-.267-1.13v-.056c-1.127.282-3.156.854-5.12 1.74a.314.314 0 0 1-.2.091c-.342.158-.68.326-1.01.502a3.012 3.012 0 0 0-1.475 1.853L.625 37.12a.32.32 0 0 1-.392.224.322.322 0 0 1-.221-.396l.854-3.131c.262-.96.915-1.78 1.791-2.25.283-.152.57-.297.862-.435C2.279 28.175.722 23.3.224 18.795c-.2-1.815-.146-3.686.162-5.564A16.606 16.606 0 0 1 5.79 3.457C8.692 1.13 12.42.137 16.021.723a12.8 12.8 0 0 1 1.57.36c.873.28 1.7.623 2.534 1.05a13.688 13.688 0 0 1 1.97 1.316 18.204 18.204 0 0 1 5.53 10.438l.157 1.005c.345 4.612-1.506 11.378-3.532 16.182.348.16.678.326.988.493.877.47 1.53 1.29 1.792 2.25l.854 3.131a.322.322 0 0 1-.306.408" mask="url(#b)"/>
        </g>
        <path fill="#212121" d="M18.292 29.801a.32.32 0 0 1-.318-.322v-2.828a.32.32 0 0 1 .318-.322.32.32 0 0 1 .318.322v2.828a.32.32 0 0 1-.318.322M9.604 29.801a.32.32 0 0 1-.318-.322v-2.91a.32.32 0 0 1 .318-.322.32.32 0 0 1 .318.322v2.91a.32.32 0 0 1-.318.322M13.948 23.292a5.846 5.846 0 0 1-3.325-1.044.324.324 0 0 1-.083-.447.315.315 0 0 1 .442-.085 5.193 5.193 0 0 0 5.933 0 .314.314 0 0 1 .442.085c.099.146.061.347-.084.447a5.846 5.846 0 0 1-3.325 1.044M10.218 18.57c-.685 0-1.37-.201-1.961-.6l-.197-.133a.325.325 0 0 1-.087-.446.316.316 0 0 1 .441-.09l.197.133c.874.59 1.997.653 2.93.166l.437-.213a.316.316 0 0 1 .425.152c.076.16.01.352-.149.43l-.43.208a3.471 3.471 0 0 1-1.606.393M17.76 18.57c-.685 0-1.369-.201-1.96-.6l-.197-.133a.325.325 0 0 1-.088-.446.316.316 0 0 1 .442-.09l.196.133c.875.59 1.998.653 2.93.166l.438-.213a.316.316 0 0 1 .424.152c.077.16.01.352-.148.43l-.43.208a3.471 3.471 0 0 1-1.606.393"/>
        <path fill="#E0B3A9" d="M8.499 21.12a2.603 2.603 0 0 1-1.926-.864l-.087-.096a.847.847 0 0 1 .051-1.186.823.823 0 0 1 1.172.052l.088.097c.233.26.587.37.922.29l.281-.06a.83.83 0 0 1 .981.653.84.84 0 0 1-.644.992l-.259.054a2.468 2.468 0 0 1-.58.068M19.04 20.18a2.61 2.61 0 0 1-.245-.012l-.313-.019a.483.483 0 1 1 .057-.965l.328.02a1.726 1.726 0 0 0 1.606-.76l.092-.136a.475.475 0 0 1 .663-.128c.218.15.275.451.127.671l-.092.137a2.683 2.683 0 0 1-2.223 1.191"/>
    </g>
</svg>
