<svg xmlns="http://www.w3.org/2000/svg" xmlns:xlink="http://www.w3.org/1999/xlink" width="28" height="38" viewBox="0 0 28 38">
    <defs>
        <path id="a" d="M0 .558h27.897v36.798H0z"/>
    </defs>
    <g fill="none" fill-rule="evenodd">
        <path fill="#FFF" d="M-48-442h320v759H-48z"/>
        <g transform="translate(0 .086)">
            <mask id="b" fill="#fff">
                <use xlink:href="#a"/>
            </mask>
            <path fill="#212121" d="M11.316 9.04a.294.294 0 0 0-.163.048l-5.513 3.56a.697.697 0 0 0-.318.588v5.555c0 4.493 3.785 8.228 8.44 8.326a8.726 8.726 0 0 0 6.335-2.482c1.598-1.569 2.478-3.644 2.478-5.844v-3.484a.185.185 0 0 0-.14-.178c-4.075-1.072-8.148-3.314-10.895-5.996a.32.32 0 0 0-.224-.094m2.71 18.727c-.094 0-.187-.002-.282-.005-4.993-.106-9.058-4.13-9.058-8.97v-5.555c0-.46.228-.882.612-1.13l5.513-3.562a.94.94 0 0 1 1.17.125c2.632 2.57 6.699 4.806 10.614 5.837a.828.828 0 0 1 .616.8v3.485c0 2.376-.949 4.615-2.671 6.306a9.342 9.342 0 0 1-6.513 2.669m-4.423 1.306a.323.323 0 0 1 .318.322v.463c0 .291.069.582.198.84.254.504 1.434 1.956 2.787 2.934a1.793 1.793 0 0 0 2.111-.021 11.916 11.916 0 0 0 2.607-2.663c.346-.484.362-.927.35-1.547a.319.319 0 0 1 .39-.32c1.871.44 3.725 1.049 5.304 1.732 1.994-4.73 3.816-11.37 3.482-15.846l-.155-.977a17.55 17.55 0 0 0-5.315-10.051 13.146 13.146 0 0 0-1.85-1.234 16.082 16.082 0 0 0-2.424-1.006 12.204 12.204 0 0 0-1.486-.339c-3.43-.558-6.973.388-9.723 2.594a15.943 15.943 0 0 0-5.184 9.383 19.875 19.875 0 0 0-.157 5.386c.49 4.43 2.021 9.228 3.242 12.146 2.207-.971 4.448-1.556 5.433-1.788a.302.302 0 0 1 .072-.008m17.975 8.284a.32.32 0 0 1-.308-.236l-.855-3.133a3.002 3.002 0 0 0-1.475-1.851c-.355-.19-.735-.378-1.137-.56a.337.337 0 0 1-.197-.089c-1.475-.654-3.217-1.244-4.995-1.685-.014.53-.104 1.008-.47 1.522a12.56 12.56 0 0 1-2.752 2.809 2.425 2.425 0 0 1-2.853.022c-1.355-.98-2.651-2.505-2.985-3.166a2.544 2.544 0 0 1-.266-1.132v-.055c-1.13.282-3.158.854-5.121 1.74a.318.318 0 0 1-.2.091 19.14 19.14 0 0 0-1.01.503 3.008 3.008 0 0 0-1.474 1.851L.625 37.12a.318.318 0 1 1-.614-.172l.856-3.132a3.657 3.657 0 0 1 1.79-2.25c.283-.15.571-.296.862-.434C2.279 28.174.722 23.298.224 18.795c-.2-1.815-.145-3.687.162-5.564a16.604 16.604 0 0 1 5.405-9.774C8.694 1.13 12.42.137 16.022.723c.527.086 1.04.203 1.57.359.873.28 1.699.623 2.534 1.05a13.586 13.586 0 0 1 1.968 1.316 18.209 18.209 0 0 1 5.531 10.44l.158 1.003c.345 4.613-1.506 11.379-3.532 16.182.347.162.677.327.988.493.877.471 1.53 1.291 1.791 2.25l.855 3.132a.323.323 0 0 1-.306.408" mask="url(#b)"/>
        </g>
        <path fill="#212121" d="M18.293 29.801a.32.32 0 0 1-.319-.322v-2.828a.32.32 0 0 1 .319-.322.32.32 0 0 1 .318.322v2.828a.32.32 0 0 1-.318.322M9.604 29.802a.32.32 0 0 1-.318-.323v-2.91a.32.32 0 0 1 .318-.321.32.32 0 0 1 .318.322v2.91a.32.32 0 0 1-.318.322M13.948 23.292a5.846 5.846 0 0 1-3.324-1.044.324.324 0 0 1-.084-.447.317.317 0 0 1 .442-.085 5.189 5.189 0 0 0 5.933 0 .317.317 0 0 1 .441.085c.1.147.062.347-.083.447a5.847 5.847 0 0 1-3.325 1.044M10.218 18.57a3.504 3.504 0 0 1-1.96-.6l-.197-.133a.324.324 0 0 1-.088-.446.314.314 0 0 1 .441-.09l.197.133c.874.59 1.997.653 2.93.166l.439-.213a.318.318 0 0 1 .424.151.324.324 0 0 1-.15.43l-.43.209a3.471 3.471 0 0 1-1.606.393M17.76 18.57a3.504 3.504 0 0 1-1.96-.6l-.197-.133a.324.324 0 0 1-.087-.446.314.314 0 0 1 .44-.09l.198.133c.874.59 1.997.653 2.93.166l.438-.213a.318.318 0 0 1 .425.151.324.324 0 0 1-.15.43l-.43.209a3.471 3.471 0 0 1-1.606.393"/>
        <path fill="#E0B3A9" d="M7.768 20.038l-1.057-.875c-.026-.022-.054-.032-.082-.044a.217.217 0 0 0-.027-.015.289.289 0 0 0-.034-.009c-.202-.059-.48.105-.424.386.13.661.736 1.134 1.399 1.107.25-.011.452-.362.225-.55M9.725 19.997c-.41 0-.41.644 0 .644s.41-.644 0-.644M8.365 21.31c-.58 0-.581.913 0 .913.58 0 .58-.912 0-.912M21.378 19.622c.057-.293-.395-.51-.597-.208-.261.39-.384.84-.359 1.31.015.268.345.44.544.228.306-.325.467-.728.455-1.18a.326.326 0 0 0-.043-.15M19.402 20.983c-.41 0-.41.644 0 .644s.41-.644 0-.644"/>
    </g>
</svg>
