<svg xmlns="http://www.w3.org/2000/svg" xmlns:xlink="http://www.w3.org/1999/xlink" width="28" height="38" viewBox="0 0 28 38">
    <defs>
        <path id="a" d="M0 .559h27.896v36.797H0z"/>
    </defs>
    <g fill="none" fill-rule="evenodd">
        <path fill="none" d="M-146-351h320v569h-320z"/>
        <g transform="translate(0 .086)">
            <mask id="b" fill="#fff">
                <use xlink:href="#a"/>
            </mask>
            <path fill="#202121" d="M11.315 9.04a.296.296 0 0 0-.162.048L5.64 12.65a.697.697 0 0 0-.318.586v5.556c0 4.492 3.785 8.227 8.438 8.325a8.7 8.7 0 0 0 6.336-2.481c1.599-1.57 2.478-3.644 2.478-5.844v-3.484a.184.184 0 0 0-.139-.178c-4.077-1.074-8.15-3.315-10.896-5.997a.322.322 0 0 0-.224-.093m2.711 18.726c-.094 0-.188-.002-.282-.005-4.993-.106-9.059-4.13-9.059-8.969v-5.556c0-.46.229-.881.612-1.13l5.513-3.562a.94.94 0 0 1 1.171.126c2.631 2.569 6.698 4.805 10.614 5.836a.829.829 0 0 1 .615.802v3.484c0 2.375-.948 4.616-2.672 6.306a9.34 9.34 0 0 1-6.512 2.668m-4.422 1.306c.07 0 .14.024.198.07.075.06.12.154.12.252v.463c0 .29.068.582.198.84.253.504 1.434 1.956 2.787 2.934a1.793 1.793 0 0 0 2.11-.02 11.922 11.922 0 0 0 2.608-2.663c.346-.486.363-.908.35-1.547a.32.32 0 0 1 .39-.321c1.87.44 3.724 1.049 5.304 1.733 1.994-4.73 3.815-11.37 3.482-15.847l-.154-.977A17.552 17.552 0 0 0 21.68 3.938a12.887 12.887 0 0 0-1.851-1.235A16.087 16.087 0 0 0 17.406 1.7a12.194 12.194 0 0 0-1.486-.34c-3.427-.556-6.972.389-9.722 2.594a15.944 15.944 0 0 0-5.184 9.384 19.847 19.847 0 0 0-.158 5.386c.49 4.429 2.022 9.227 3.242 12.145 2.207-.97 4.449-1.555 5.433-1.788a.309.309 0 0 1 .073-.008m17.974 8.284a.32.32 0 0 1-.307-.236l-.855-3.132a3.014 3.014 0 0 0-1.475-1.853c-.355-.19-.735-.377-1.138-.56a.304.304 0 0 1-.103-.026.29.29 0 0 1-.093-.062c-1.477-.654-3.218-1.243-4.996-1.685-.014.53-.103 1.008-.469 1.522-.767 1.077-1.744 2.074-2.753 2.81a2.422 2.422 0 0 1-2.852.022c-1.355-.98-2.651-2.506-2.985-3.168a2.542 2.542 0 0 1-.267-1.13v-.056c-1.128.283-3.158.855-5.12 1.74a.304.304 0 0 1-.097.066.308.308 0 0 1-.105.026c-.34.158-.678.325-1.008.501a3.019 3.019 0 0 0-1.475 1.853L.625 37.12a.318.318 0 1 1-.613-.172l.854-3.131a3.656 3.656 0 0 1 1.791-2.25c.283-.152.57-.296.861-.434C2.28 28.174.722 23.298.224 18.795c-.2-1.814-.146-3.686.162-5.564A16.606 16.606 0 0 1 5.79 3.457C8.692 1.13 12.418.138 16.022.723c.528.086 1.041.203 1.57.36.872.28 1.698.623 2.534 1.05a13.789 13.789 0 0 1 1.968 1.316 18.204 18.204 0 0 1 5.53 10.438l.158 1.005c.346 4.612-1.505 11.378-3.532 16.182.347.16.677.326.99.493a3.658 3.658 0 0 1 1.79 2.25l.854 3.131a.323.323 0 0 1-.306.408" mask="url(#b)"/>
        </g>
        <path fill="#202121" d="M18.292 29.802a.32.32 0 0 1-.318-.323v-2.828a.32.32 0 0 1 .318-.322.32.32 0 0 1 .319.322v2.828a.32.32 0 0 1-.319.323M9.603 29.802a.32.32 0 0 1-.318-.323v-2.91a.32.32 0 0 1 .318-.321.32.32 0 0 1 .319.322v2.91a.32.32 0 0 1-.319.322M13.948 23.292a5.844 5.844 0 0 1-3.324-1.044.324.324 0 0 1-.084-.447.315.315 0 0 1 .442-.085 5.192 5.192 0 0 0 5.933 0 .314.314 0 0 1 .441.085c.1.147.062.347-.083.447a5.846 5.846 0 0 1-3.325 1.044M10.217 18.57a3.5 3.5 0 0 1-1.96-.6l-.196-.133a.324.324 0 0 1-.088-.446.315.315 0 0 1 .44-.09l.198.133c.874.59 1.996.653 2.93.166l.438-.213a.317.317 0 0 1 .424.152.324.324 0 0 1-.15.43l-.429.208a3.472 3.472 0 0 1-1.607.394M17.76 18.57a3.5 3.5 0 0 1-1.96-.6l-.197-.133a.325.325 0 0 1-.088-.446.316.316 0 0 1 .442-.09l.197.133c.873.59 1.996.653 2.93.166l.437-.213a.316.316 0 0 1 .425.152.324.324 0 0 1-.15.43l-.429.208a3.477 3.477 0 0 1-1.606.394"/>
        <path fill="#AAB7CD" d="M8.14 18.167c.965.24 1.782 1.637 3.975.117.237-.165.955.305.16 1.155-.795.848-3.116 1.168-4.392-.289-.301-.343-.426-1.153.256-.983M19.845 18.167c-.966.24-1.783 1.637-3.975.117-.238-.165-.956.305-.16 1.155.794.848 3.115 1.168 4.39-.289.302-.343.427-1.153-.255-.983"/>
    </g>
</svg>
