<svg xmlns="http://www.w3.org/2000/svg" xmlns:xlink="http://www.w3.org/1999/xlink" width="28" height="38" viewBox="0 0 28 38">
    <defs>
        <path id="a" d="M0 .559h27.896v36.797H0z"/>
    </defs>
    <g fill="none" fill-rule="evenodd">
        <path fill="#FFF" d="M-48-230h320v569H-48z"/>
        <g transform="translate(0 .086)">
            <mask id="b" fill="#fff">
                <use xlink:href="#a"/>
            </mask>
            <path fill="#202121" d="M11.315 9.04a.296.296 0 0 0-.162.048L5.64 12.65a.695.695 0 0 0-.318.586v5.556c0 4.492 3.785 8.227 8.438 8.325a8.697 8.697 0 0 0 6.335-2.481c1.599-1.57 2.48-3.644 2.48-5.844l-.001-3.484a.185.185 0 0 0-.139-.178c-4.076-1.074-8.15-3.315-10.896-5.997a.322.322 0 0 0-.224-.093m2.711 18.726c-.094 0-.188-.002-.282-.005-4.994-.106-9.058-4.13-9.058-8.969v-5.556c0-.46.228-.881.61-1.13l5.515-3.562a.94.94 0 0 1 1.17.126c2.631 2.569 6.698 4.805 10.614 5.836a.829.829 0 0 1 .615.802l.001 3.484c0 2.375-.95 4.616-2.672 6.306a9.344 9.344 0 0 1-6.513 2.668m-4.422 1.306c.07 0 .14.024.198.07.075.06.12.154.12.252v.463c0 .29.068.582.198.84.253.504 1.434 1.956 2.786 2.934a1.795 1.795 0 0 0 2.112-.02 11.935 11.935 0 0 0 2.608-2.663c.345-.486.362-.908.348-1.547a.323.323 0 0 1 .117-.257.316.316 0 0 1 .273-.064c1.87.44 3.725 1.049 5.305 1.733 1.994-4.73 3.815-11.37 3.482-15.847l-.155-.977a17.547 17.547 0 0 0-5.315-10.051 12.803 12.803 0 0 0-1.851-1.235A16.162 16.162 0 0 0 17.407 1.7a12.204 12.204 0 0 0-1.487-.34c-3.427-.556-6.972.389-9.722 2.594a15.949 15.949 0 0 0-5.185 9.384 19.872 19.872 0 0 0-.157 5.386c.49 4.429 2.022 9.227 3.242 12.145 2.207-.97 4.449-1.555 5.434-1.788a.3.3 0 0 1 .072-.008m17.974 8.284a.32.32 0 0 1-.307-.236l-.855-3.132a3.017 3.017 0 0 0-1.475-1.853c-.355-.19-.735-.377-1.137-.56a.3.3 0 0 1-.104-.026.29.29 0 0 1-.093-.062c-1.476-.654-3.218-1.243-4.996-1.685-.014.53-.104 1.008-.47 1.522a12.573 12.573 0 0 1-2.752 2.81 2.423 2.423 0 0 1-2.852.022c-1.355-.98-2.652-2.506-2.985-3.168a2.542 2.542 0 0 1-.267-1.13v-.056c-1.128.283-3.158.855-5.12 1.74a.304.304 0 0 1-.097.066.308.308 0 0 1-.105.026c-.34.158-.678.325-1.007.501a3.015 3.015 0 0 0-1.476 1.853L.625 37.12a.32.32 0 0 1-.392.225.322.322 0 0 1-.221-.397l.854-3.131a3.656 3.656 0 0 1 1.791-2.25c.283-.152.57-.296.861-.434C2.28 28.174.722 23.298.224 18.795c-.2-1.814-.146-3.686.162-5.564A16.603 16.603 0 0 1 5.79 3.457C8.692 1.13 12.418.138 16.021.723a12.8 12.8 0 0 1 1.57.36c.873.28 1.7.623 2.534 1.05a13.713 13.713 0 0 1 1.969 1.316 18.204 18.204 0 0 1 5.53 10.438l.158 1.005c.345 4.612-1.506 11.378-3.532 16.182.347.16.677.326.988.493.877.471 1.53 1.29 1.792 2.25l.854 3.131a.322.322 0 0 1-.306.408" mask="url(#b)"/>
        </g>
        <path fill="#202121" d="M18.292 29.802a.32.32 0 0 1-.318-.323v-2.828a.32.32 0 0 1 .318-.322.32.32 0 0 1 .318.322v2.828a.32.32 0 0 1-.318.323M9.604 29.802a.32.32 0 0 1-.318-.323v-2.91a.32.32 0 0 1 .318-.321.32.32 0 0 1 .318.322v2.91a.32.32 0 0 1-.318.322M13.948 23.292a5.846 5.846 0 0 1-3.324-1.044.323.323 0 0 1-.084-.447.315.315 0 0 1 .441-.085 5.193 5.193 0 0 0 5.934 0 .313.313 0 0 1 .441.085c.1.147.062.347-.083.447a5.846 5.846 0 0 1-3.325 1.044M10.218 18.57a3.5 3.5 0 0 1-1.96-.6l-.198-.133a.325.325 0 0 1-.087-.446.316.316 0 0 1 .441-.09l.197.133c.874.59 1.997.653 2.93.166l.438-.213a.316.316 0 0 1 .424.152c.076.16.01.352-.149.43l-.43.208a3.474 3.474 0 0 1-1.606.394M17.76 18.57a3.5 3.5 0 0 1-1.96-.6l-.197-.133a.325.325 0 0 1-.088-.446.316.316 0 0 1 .442-.09l.196.133c.874.59 1.997.653 2.93.166l.438-.213a.316.316 0 0 1 .424.152c.077.16.01.352-.148.43l-.43.208a3.474 3.474 0 0 1-1.607.394"/>
        <path fill="#C3C3C3" d="M8.139 18.167c.966.24 1.783 1.637 3.976.117.237-.165.956.305.16 1.155-.795.848-3.116 1.168-4.392-.289-.3-.343-.426-1.153.256-.983M19.845 18.167c-.966.24-1.783 1.637-3.976.117-.237-.165-.956.305-.16 1.155.795.848 3.116 1.168 4.392-.289.301-.343.426-1.153-.256-.983"/>
    </g>
</svg>
