<svg xmlns="http://www.w3.org/2000/svg" xmlns:xlink="http://www.w3.org/1999/xlink" width="28" height="38" viewBox="0 0 28 38">
    <defs>
        <path id="a" d="M0 .559h27.896v36.797H0z"/>
    </defs>
    <g fill="none" fill-rule="evenodd">
        <path fill="#FFF" d="M-48-351h320v569H-48z"/>
        <g transform="translate(0 .086)">
            <mask id="b" fill="#fff">
                <use xlink:href="#a"/>
            </mask>
            <path fill="#202121" d="M11.316 9.04a.298.298 0 0 0-.163.048L5.639 12.65a.696.696 0 0 0-.317.586v5.556c0 4.492 3.786 8.227 8.439 8.325a8.697 8.697 0 0 0 6.335-2.481c1.598-1.57 2.478-3.644 2.478-5.844v-3.484a.184.184 0 0 0-.138-.178c-4.078-1.074-8.15-3.315-10.896-5.997a.322.322 0 0 0-.224-.093m2.71 18.726c-.094 0-.188-.002-.282-.005-4.993-.106-9.059-4.13-9.059-8.969v-5.556c0-.46.229-.881.612-1.13l5.513-3.562a.94.94 0 0 1 1.171.126c2.632 2.568 6.698 4.805 10.614 5.836a.828.828 0 0 1 .615.802v3.484c0 2.375-.948 4.615-2.671 6.306a9.341 9.341 0 0 1-6.512 2.668m-4.423 1.306c.071 0 .14.024.198.07.076.06.12.154.12.252v.463c0 .29.068.582.198.84.253.504 1.434 1.956 2.787 2.934a1.794 1.794 0 0 0 2.11-.02 11.922 11.922 0 0 0 2.608-2.663c.346-.486.362-.909.349-1.547a.323.323 0 0 1 .118-.257.315.315 0 0 1 .272-.064c1.871.44 3.725 1.049 5.305 1.733 1.994-4.73 3.815-11.37 3.482-15.847l-.155-.977a17.547 17.547 0 0 0-5.315-10.051 12.887 12.887 0 0 0-1.85-1.235A16.142 16.142 0 0 0 17.405 1.7a12.194 12.194 0 0 0-1.486-.34c-3.427-.556-6.972.388-9.723 2.594a15.948 15.948 0 0 0-5.183 9.384 19.872 19.872 0 0 0-.158 5.386c.49 4.429 2.022 9.227 3.243 12.145 2.206-.97 4.448-1.555 5.432-1.788a.305.305 0 0 1 .073-.008m17.974 8.284a.32.32 0 0 1-.307-.236l-.855-3.132a3.013 3.013 0 0 0-1.476-1.853 18.9 18.9 0 0 0-1.136-.56.3.3 0 0 1-.104-.026.301.301 0 0 1-.094-.062c-1.475-.654-3.217-1.243-4.994-1.685-.015.53-.105 1.008-.47 1.522a12.59 12.59 0 0 1-2.753 2.81 2.422 2.422 0 0 1-2.852.022c-1.355-.98-2.652-2.506-2.985-3.168a2.542 2.542 0 0 1-.266-1.13v-.056c-1.13.283-3.16.855-5.121 1.74a.304.304 0 0 1-.097.066.307.307 0 0 1-.105.026c-.34.158-.678.325-1.008.501a3.016 3.016 0 0 0-1.475 1.853L.625 37.12a.318.318 0 1 1-.614-.172l.856-3.131c.26-.96.914-1.779 1.79-2.25.283-.152.57-.296.861-.434C2.28 28.174.722 23.298.224 18.795c-.2-1.814-.146-3.686.162-5.564A16.607 16.607 0 0 1 5.79 3.457C8.693 1.13 12.42.138 16.021.723c.529.086 1.042.203 1.57.36.873.28 1.7.623 2.535 1.05a13.713 13.713 0 0 1 1.969 1.316 18.204 18.204 0 0 1 5.53 10.438l.157 1.005c.345 4.612-1.505 11.378-3.532 16.182.347.16.678.326.989.493.877.471 1.529 1.29 1.79 2.25l.856 3.131a.323.323 0 0 1-.307.408" mask="url(#b)"/>
        </g>
        <path fill="#202121" d="M18.292 29.801a.32.32 0 0 1-.318-.322v-2.828a.32.32 0 0 1 .318-.322.32.32 0 0 1 .318.322v2.828a.32.32 0 0 1-.318.322M9.604 29.801a.32.32 0 0 1-.319-.322v-2.91a.32.32 0 0 1 .319-.321.32.32 0 0 1 .318.322v2.91a.32.32 0 0 1-.318.321M13.948 23.292a5.847 5.847 0 0 1-3.325-1.044.324.324 0 0 1-.083-.447.314.314 0 0 1 .441-.085 5.193 5.193 0 0 0 5.934 0 .314.314 0 0 1 .442.085c.099.146.061.347-.084.447a5.847 5.847 0 0 1-3.325 1.044M10.218 18.57a3.5 3.5 0 0 1-1.96-.6l-.198-.133a.324.324 0 0 1-.087-.446.315.315 0 0 1 .441-.09l.197.133c.874.59 1.997.653 2.93.166l.438-.213a.317.317 0 0 1 .425.152.324.324 0 0 1-.15.43l-.43.208a3.474 3.474 0 0 1-1.606.394M17.76 18.57a3.5 3.5 0 0 1-1.96-.6l-.197-.133a.324.324 0 0 1-.087-.446.316.316 0 0 1 .44-.09l.197.133c.874.59 1.997.653 2.93.166l.439-.213a.316.316 0 0 1 .424.152.324.324 0 0 1-.15.43l-.429.208a3.474 3.474 0 0 1-1.607.394"/>
        <path fill="#C3C3C3" d="M11.62 18.571l-1.531.26a.52.52 0 0 1-.195-.003l-1.044-.224a.397.397 0 0 0-.23.022c-.15.063-.233.202-.2.333l.144.586c.052.212.17.403.342.555.389.34.999.436 1.557.243l.3-.105c.277-.096.521-.257.704-.46l.55-.62a.358.358 0 0 0 .094-.313c-.041-.194-.256-.313-.49-.274M15.978 18.571l1.533.26a.52.52 0 0 0 .195-.003l1.043-.224a.397.397 0 0 1 .231.022c.148.063.232.202.2.333l-.144.586c-.053.212-.171.403-.343.555-.389.34-.998.436-1.556.243l-.301-.105a1.687 1.687 0 0 1-.704-.46l-.55-.62a.358.358 0 0 1-.094-.313c.042-.194.256-.313.49-.274"/>
    </g>
</svg>
